# xmcd CD database file
# Copyright (C) 1997 Ti Kan
# 
# Track frame offsets:
#     182
#     3580
#     17357
#     33917
#     57655
#     70655
#     87370
#     107145
#     129087
#     145375
#     171847
#     191755
#     213905
# 
# Disc length: 3029 seconds
# 
# Revision: 1
# Processed by: cddbd v1.4b41PL1 Copyright (c) Steve Scherf et al.
# Submitted via: DiscPlay 4.0.3
# 
DISCID=ae0bd30d
DTITLE=Swinging Steaks - Southside Of The Sky
DYEAR=1900
DGENRE=
TTITLE0=So. Side
TTITLE1=Beg, Steal Or Borrow
TTITLE2=Saddle Up
TTITLE3=Circlin'
TTITLE4=Do Me A Favor
TTITLE5=Suicide At The Wishing Well
TTITLE6=Adelaide
TTITLE7=Already Gone
TTITLE8=Train Wreck
TTITLE9=Dancin' In The Water
TTITLE10=Behind Me
TTITLE11=Right Through You
TTITLE12=Southside Of The Sky
EXTD=
EXTT0=
EXTT1=
EXTT2=
EXTT3=
EXTT4=
EXTT5=
EXTT6=
EXTT7=
EXTT8=
EXTT9=
EXTT10=
EXTT11=
EXTT12=
PLAYORDER=
